<svg width="333" height="45" viewBox="0 0 333 45" fill="none" xmlns="http://www.w3.org/2000/svg">
<g clip-path="url(#clip0_6_66)">
<path d="M34.7994 27.493C33.8623 26.2602 32.6752 25.3355 31.2383 24.5958C30.551 24.2876 30.4261 23.3629 31.0508 22.8698C31.988 22.13 32.7377 21.3287 33.3625 20.3424C34.2996 18.8629 34.737 17.1369 34.737 15.2259C34.737 12.0821 33.4249 9.55468 30.8009 7.70537C28.1769 5.85605 24.4283 4.9314 19.5552 4.9314H1.24953C0.562289 4.9314 0 5.48619 0 6.16427V10.541C0 11.2191 0.562289 11.7739 1.24953 11.7739H18.4306C20.7422 11.7739 22.4291 12.1437 23.6161 12.9451C24.8032 13.7465 25.3655 14.8561 25.3655 16.3972C25.3655 17.9382 24.8032 19.1095 23.6161 19.9108C22.4291 20.7122 20.6797 21.0821 18.4306 21.0821H7.62214C6.9349 21.0821 6.37261 21.6369 6.37261 22.315V26.5067C6.37261 27.1848 6.9349 27.7396 7.62214 27.7396H19.9925C24.9281 27.7396 27.3647 29.404 27.3647 32.6711C27.3647 34.3355 26.74 35.5684 25.4904 36.3698C24.2409 37.1711 22.4291 37.541 19.9925 37.541H14.4321C13.7448 37.541 13.1826 38.0958 13.1826 38.7739V43.1506C13.1826 43.8287 13.7448 44.3834 14.4321 44.3834H20.6797C25.9278 44.3834 29.8638 43.4588 32.6128 41.6095C35.3617 39.7602 36.7362 37.1095 36.7362 33.5958C36.7362 31.1917 36.1114 29.1574 34.7994 27.493Z" fill="#152951"/>
<path d="M65.163 16.5205C67.7246 18.7397 68.9741 22.1301 68.9741 26.6301V42.9657C68.9741 43.5205 68.5368 43.952 67.9745 43.952H61.6643C61.102 43.952 60.6647 43.5205 60.6647 42.9657C60.6647 42.1027 59.6651 41.6096 58.9778 42.226C57.166 43.7055 54.6045 44.4452 51.2932 44.4452C48.9191 44.4452 46.8574 44.0753 45.1705 43.274C43.4212 42.4726 42.1092 41.363 41.172 40.0068C40.2349 38.589 39.7975 37.0479 39.7975 35.2603C39.7975 32.4246 40.8596 30.2055 43.0463 28.6027C45.233 27 48.5443 26.1986 53.0426 26.1986H59.0403C59.6651 26.1986 60.1649 25.6438 60.0399 25.0274C59.8525 23.6712 59.2902 22.5616 58.3531 21.7603C57.166 20.7123 55.4167 20.2192 53.0426 20.2192C51.4182 20.2192 49.7938 20.4657 48.2319 20.9589C47.0448 21.3288 46.0452 21.8219 45.1081 22.3767C44.6082 22.6849 43.921 22.5 43.6711 22.0068L41.4219 17.6918C41.172 17.1986 41.3595 16.6438 41.7968 16.3356C43.2962 15.4109 45.0456 14.6712 47.0448 14.1781C49.4189 13.5616 51.793 13.1918 54.2921 13.1918C58.9154 13.1301 62.6015 14.3014 65.163 16.5205ZM57.5409 37.4794C58.6655 36.8014 59.4777 35.8767 59.9775 34.5822C60.0399 34.4589 60.0399 34.3356 60.0399 34.2123V32.3014C60.0399 31.7466 59.6026 31.3151 59.0403 31.3151H53.9172C50.2311 31.3151 48.4193 32.4863 48.4193 34.8904C48.4193 36 48.8566 36.9246 49.7938 37.6027C50.6685 38.2808 51.918 38.589 53.4799 38.589C54.9793 38.5274 56.3538 38.1575 57.5409 37.4794Z" fill="#152951"/>
<path d="M81.9692 42.4727C79.3452 41.1166 77.2835 39.2672 75.8465 36.9248C74.3471 34.5823 73.6599 31.87 73.6599 28.8494C73.6599 25.8289 74.4096 23.1166 75.8465 20.7741C77.346 18.4316 79.3452 16.5207 81.9692 15.2261C84.5932 13.87 87.5296 13.1919 90.8409 13.1919C94.0897 13.1919 96.9011 13.87 99.3377 15.2261C101.462 16.3974 103.086 18.0001 104.211 20.0344C104.461 20.5275 104.273 21.1439 103.774 21.3905L98.588 24.1645C98.1507 24.4111 97.5259 24.2878 97.276 23.8563C95.7141 21.5755 93.5899 20.4659 90.8409 20.4659C88.5293 20.4659 86.5925 21.2056 85.0306 22.7467C83.5311 24.2261 82.7189 26.322 82.7189 28.9111C82.7189 31.5001 83.4687 33.5344 85.0306 35.0755C86.53 36.5549 88.4668 37.3563 90.8409 37.3563C93.5899 37.3563 95.7141 36.2467 97.276 33.9659C97.5884 33.5344 98.1507 33.3494 98.6505 33.6576L103.836 36.4316C104.336 36.6782 104.523 37.2946 104.273 37.7878C103.149 39.7604 101.524 41.3631 99.4627 42.5344C97.0261 43.8905 94.2146 44.5686 90.9659 44.5686C87.5296 44.4453 84.5932 43.7672 81.9692 42.4727Z" fill="#152951"/>
<path d="M120.517 33.3494L117.331 36.4315C117.144 36.6165 117.019 36.8631 117.019 37.1713V43.459C117.019 44.0138 116.581 44.4453 116.019 44.4453H109.147C108.584 44.4453 108.147 44.0138 108.147 43.459V3.57541C108.147 3.02062 108.584 2.58911 109.147 2.58911H116.019C116.581 2.58911 117.019 3.02062 117.019 3.57541V23.9178C117.019 24.7809 118.081 25.2741 118.768 24.6576L129.764 14.3631C129.951 14.1781 130.201 14.0548 130.451 14.0548H138.261C139.198 14.0548 139.635 15.1645 139.01 15.7809L128.514 26.2603C128.139 26.6302 128.139 27.185 128.452 27.6165L140.572 42.7809C141.135 43.459 140.635 44.4453 139.76 44.4453H131.576C131.263 44.4453 130.951 44.322 130.763 44.0754L122.079 33.4111C121.704 32.9179 120.955 32.9178 120.517 33.3494Z" fill="#152951"/>
<path d="M167.999 41.7945C164.688 40.0069 162.064 37.6027 160.127 34.4589C158.253 31.3767 157.316 27.863 157.316 23.9795C157.316 20.0959 158.253 16.5822 160.127 13.5C162.002 10.4178 164.626 7.95206 167.999 6.16436C171.311 4.37669 175.059 3.51367 179.245 3.51367C183.431 3.51367 187.117 4.37669 190.491 6.16436C193.802 7.95206 196.426 10.3562 198.363 13.5C200.3 16.5822 201.237 20.0959 201.237 23.9795C201.237 27.863 200.3 31.3767 198.363 34.4589C196.426 37.5411 193.865 40.0069 190.491 41.7945C187.18 43.5822 183.431 44.4452 179.245 44.4452C175.122 44.4452 171.373 43.5822 167.999 41.7945ZM185.68 35.0136C187.617 33.9657 189.116 32.4247 190.179 30.5137C191.241 28.6027 191.803 26.3836 191.803 23.9795C191.803 21.5137 191.241 19.3561 190.179 17.4451C189.116 15.5342 187.617 14.0548 185.68 12.9452C183.744 11.8973 181.619 11.3425 179.245 11.3425C176.871 11.3425 174.747 11.8973 172.81 12.9452C170.873 13.9932 169.374 15.5342 168.312 17.4451C167.25 19.3561 166.687 21.5753 166.687 23.9795C166.687 26.4452 167.25 28.6027 168.312 30.5137C169.374 32.4247 170.873 33.9041 172.81 35.0136C174.747 36.0616 176.871 36.6164 179.245 36.6164C181.619 36.6781 183.744 36.1232 185.68 35.0136Z" fill="#152951"/>
<path d="M216.919 14.733H222.854C223.354 14.733 223.791 15.1645 223.791 15.6576V20.5275C223.791 21.0206 223.354 21.4521 222.854 21.4521H217.168C216.606 21.4521 216.169 21.8836 216.169 22.4384V43.3357C216.169 43.8905 215.732 44.322 215.169 44.322H208.297C207.735 44.322 207.297 43.8905 207.297 43.3357V22.5617C207.297 22.0069 206.86 21.5754 206.298 21.5754H203.611C203.049 21.5754 202.611 21.1439 202.611 20.5891V15.8425C202.611 15.2877 203.049 14.8562 203.611 14.8562H206.298C206.86 14.8562 207.297 14.4247 207.297 13.8699V13.5001C207.297 10.048 208.359 7.27404 210.421 5.23979C212.483 3.20554 215.419 2.21924 219.23 2.21924C220.542 2.21924 221.854 2.34253 223.041 2.65075C223.853 2.83568 224.603 3.08225 225.29 3.39047C225.728 3.63705 225.978 4.1302 225.79 4.62335L224.166 9.06172C223.978 9.61651 223.354 9.92473 222.791 9.67815C221.979 9.30829 221.105 9.12336 220.105 9.12336C217.418 9.12336 216.044 10.6028 216.044 13.5001V13.8083C215.919 14.3014 216.356 14.733 216.919 14.733Z" fill="#152951"/>
<path d="M241.972 14.733H247.782C248.344 14.733 248.782 15.1645 248.782 15.7193V20.4658C248.782 21.0206 248.344 21.4521 247.782 21.4521H242.159C241.597 21.4521 241.159 21.8836 241.159 22.4384V43.3357C241.159 43.8905 240.722 44.322 240.16 44.322H233.287C232.725 44.322 232.288 43.8905 232.288 43.3357V22.5617C232.288 22.0069 231.85 21.5754 231.288 21.5754H228.539C228.039 21.5754 227.602 21.1439 227.602 20.6508V15.7809C227.602 15.2877 228.039 14.8562 228.539 14.8562H231.288C231.85 14.8562 232.288 14.4247 232.288 13.8699V13.5001C232.288 10.048 233.35 7.27404 235.412 5.23979C237.473 3.20554 240.41 2.21924 244.221 2.21924C245.533 2.21924 246.845 2.34253 248.032 2.65075C248.844 2.83568 249.594 3.08225 250.281 3.39047C250.718 3.63705 250.968 4.1302 250.781 4.62335L249.156 9.06172C248.969 9.61651 248.344 9.92473 247.782 9.67815C246.97 9.30829 246.095 9.12336 245.095 9.12336C242.409 9.12336 241.035 10.6028 241.035 13.5001V13.8083C240.91 14.3014 241.347 14.733 241.972 14.733Z" fill="#152951"/>
<path d="M255.592 8.4452C254.592 7.52055 254.03 6.34931 254.03 4.93151C254.03 3.5137 254.529 2.34247 255.592 1.41781C256.591 0.493151 257.966 0 259.59 0C261.214 0 262.589 0.431507 263.589 1.35616C264.588 2.28082 265.15 3.39041 265.15 4.74657C265.15 6.22603 264.651 7.4589 263.589 8.38356C262.589 9.36986 261.214 9.80137 259.59 9.80137C257.903 9.80137 256.591 9.36986 255.592 8.4452Z" fill="#152951"/>
<path d="M256.154 14.0547H263.026C263.589 14.0547 264.026 14.4862 264.026 15.041V43.3972C264.026 43.952 263.589 44.3835 263.026 44.3835H256.154C255.592 44.3835 255.154 43.952 255.154 43.3972V15.041C255.092 14.5478 255.592 14.0547 256.154 14.0547Z" fill="#152951"/>
<path d="M276.959 42.4727C274.335 41.1166 272.273 39.2672 270.836 36.9248C269.336 34.5823 268.649 31.87 268.649 28.8494C268.649 25.8289 269.399 23.1166 270.836 20.7741C272.335 18.4316 274.335 16.5207 276.959 15.2261C279.583 13.87 282.519 13.1919 285.83 13.1919C289.079 13.1919 291.89 13.87 294.327 15.2261C296.451 16.3974 298.076 18.0001 299.2 20.0344C299.45 20.5275 299.263 21.1439 298.763 21.3905L293.577 24.1645C293.14 24.4111 292.515 24.2878 292.265 23.8563C290.703 21.5755 288.579 20.4659 285.83 20.4659C283.519 20.4659 281.582 21.2056 280.02 22.7467C278.52 24.2261 277.708 26.322 277.708 28.9111C277.708 31.5001 278.458 33.5344 280.02 35.0755C281.519 36.5549 283.456 37.3563 285.83 37.3563C288.579 37.3563 290.703 36.2467 292.265 33.9659C292.578 33.5344 293.14 33.3494 293.64 33.6576L298.825 36.4316C299.325 36.6782 299.513 37.2946 299.263 37.7878C298.138 39.7604 296.514 41.3631 294.452 42.5344C292.015 43.8905 289.204 44.5686 285.955 44.5686C282.519 44.4453 279.583 43.7672 276.959 42.4727Z" fill="#152951"/>
<path d="M331.938 31.3151H311.008C310.259 31.3151 309.759 32.0548 310.071 32.7329C310.633 33.9657 311.446 35.0137 312.57 35.8151C314.132 36.9246 316.069 37.4794 318.381 37.4794C320.005 37.4794 321.379 37.2329 322.629 36.8014C323.566 36.4316 324.503 35.8767 325.378 35.1986C325.815 34.8288 326.44 34.8905 326.815 35.2603L330.251 38.8972C330.626 39.3288 330.626 39.9453 330.189 40.3151C327.315 43.0891 323.316 44.5068 318.193 44.5068C314.694 44.5068 311.633 43.8288 308.947 42.4727C306.26 41.1165 304.198 39.2672 302.761 36.9247C301.324 34.5822 300.575 31.8699 300.575 28.8493C300.575 25.8904 301.262 23.1781 302.699 20.774C304.136 18.3699 306.073 16.5206 308.572 15.1644C311.071 13.8082 313.882 13.1301 316.944 13.1301C319.942 13.1301 322.691 13.7466 325.128 15.0411C327.565 16.3356 329.501 18.1849 330.876 20.5274C332.25 22.9315 332.938 25.7055 332.938 28.8493C332.938 28.9109 332.875 29.4041 332.813 30.2671C332.938 30.8836 332.5 31.3151 331.938 31.3151ZM312.008 21.5138C310.946 22.3768 310.196 23.4863 309.821 24.8425C309.634 25.5205 310.134 26.1986 310.821 26.1986H323.379C324.066 26.1986 324.566 25.5205 324.378 24.8425C323.941 23.5479 323.191 22.4383 322.192 21.5753C320.817 20.4041 319.13 19.8494 317.131 19.8494C315.069 19.8494 313.382 20.4042 312.008 21.5138Z" fill="#152951"/>
</g>
<defs>
<clipPath id="clip0_6_66">
<rect width="333" height="45" fill="white"/>
</clipPath>
</defs>
</svg>
