<svg width="408" height="36" viewBox="0 0 408 36" fill="none" xmlns="http://www.w3.org/2000/svg">
<g clip-path="url(#clip0_6_57)">
<path d="M82.6174 35.0918H57.1042V0.794189H82.5468V7.07606H63.8889V14.8021H78.5185V21.0118H63.8889V28.81H82.6174V35.0918Z" fill="white"/>
<path d="M354.854 35.0918H329.339V0.794189H354.782V7.07606H336.196V14.8021H350.824V21.0118H336.196V28.81H354.925V35.0918H354.854Z" fill="white"/>
<path d="M124.598 7.07606V35.0918H117.743V7.07606H106.576V0.794189H135.764V7.07606H124.598Z" fill="white"/>
<path d="M190.043 5.1988C193.505 8.66465 195.2 12.9248 195.2 17.9792C195.2 22.9614 193.505 27.2215 190.043 30.6873C186.578 34.1532 182.409 35.8861 177.462 35.8861C172.515 35.8861 168.345 34.1532 164.882 30.6873C161.419 27.2215 159.723 22.9614 159.723 17.9792C159.723 12.9248 161.419 8.66465 164.882 5.1988C168.345 1.73293 172.515 0 177.462 0C182.409 0 186.578 1.73293 190.043 5.1988ZM185.165 26.0661C187.285 23.9 188.275 21.2284 188.275 17.9792C188.275 14.7299 187.215 11.9861 185.165 9.81995C183.045 7.65377 180.501 6.5707 177.462 6.5707C174.423 6.5707 171.879 7.65377 169.758 9.81995C167.638 11.9861 166.649 14.7299 166.649 17.9792C166.649 21.2284 167.709 23.9 169.758 26.0661C171.879 28.2323 174.423 29.3154 177.462 29.3154C180.501 29.3154 183.045 28.2323 185.165 26.0661Z" fill="#EB5757"/>
<path d="M250.256 35.0918H244.531L225.945 13.0691V35.0918H219.089V0.794189H224.814L243.402 23.4666V0.794189H250.256V35.0918Z" fill="#EB5757"/>
<path d="M305.382 35.0918H299.657L281.069 13.0691V35.0918H274.215V0.794189H279.94L298.526 23.4666V0.794189H305.382V35.0918Z" fill="white"/>
<path d="M396.834 7.07606V35.0918H389.977V7.07606H378.811V0.794189H408V7.07606H396.834Z" fill="white"/>
<path d="M17.7391 35.8861C7.98614 35.8861 0 28.5933 0 17.9792C0 7.29275 8.19817 0 17.7391 0C22.2623 0 26.2906 1.44411 29.259 4.11571L24.9479 9.02567C23.1104 7.72598 20.7075 6.78731 18.2339 6.78731C12.0145 6.78731 7.49142 11.4085 7.49142 17.9069C7.49142 24.4055 11.8732 29.0266 17.8098 29.0266C22.333 29.0266 25.4425 27.3659 26.4321 22.9614H18.3045V16.7517H32.9339C34.4888 28.5933 26.9974 35.8861 17.7391 35.8861Z" fill="white"/>
</g>
<defs>
<clipPath id="clip0_6_57">
<rect width="408" height="36" fill="white"/>
</clipPath>
</defs>
</svg>
